<svg xmlns="http://www.w3.org/2000/svg" version="1.1" xmlns:xlink="http://www.w3.org/1999/xlink" xmlns:svgjs="http://svgjs.dev/svgjs" width="1000" height="1000" viewBox="0 0 1000 1000"><rect width="1000" height="1000" fill="#fbeaab"></rect><g transform="matrix(0.7,0,0,0.7,150.0000000000001,106.25)"><svg viewBox="0 0 320 360" data-background-color="#fbeaab" preserveAspectRatio="xMidYMid meet" height="1125" width="1000" xmlns="http://www.w3.org/2000/svg" xmlns:xlink="http://www.w3.org/1999/xlink"><g id="tight-bounds" transform="matrix(1,0,0,1,0,0)"><svg viewBox="0 0 320 360" height="360" width="320"><g><svg></svg></g><g><svg viewBox="0 0 320 360" height="360" width="320"><g><path xmlns="http://www.w3.org/2000/svg" d="M20.961 227.22l3.726 4.658-1.863-6.056c-0.466-2.795-3.726 0.466-1.863 1.398M25.153 224.425c1.397 2.329 2.795 4.658 2.795 6.987 0 3.261 2.795 4.658 5.123 5.589-3.261-3.726-5.124-13.974-7.918-12.576M204.017 26.929c7.918 0 15.371-0.932 23.756 0.931 20.495 5.124 37.729 15.371 49.374 29.811l32.606 52.169c1.397 13.042 4.192 27.482 3.726 43.319 3.261 0 2.795-4.658 6.521-5.59-3.726 9.316-5.59 20.961-6.521 34.469-2.329-7.453 0-18.632 0.466-24.687-3.261 5.124-5.124 1.397-5.124-0.932 0.466-3.726-1.397-3.261-2.795-4.658-5.124-4.658-8.384-9.782-12.11-17.7 2.329-6.055 2.795-14.905-4.658-19.563-2.329-1.397-5.124-3.726-6.521-7.453-1.863-5.124-5.124-11.179-4.193-19.097 0.466-2.329-6.987 5.124-11.179 1.863-18.166-12.576-36.332-27.016-58.224-39.127-11.645 0-20.029-4.192-24.221-9.316-3.726-4.658-0.932-10.713 4.658-11.179 3.261 0 6.987-0.932 9.782 0.932 0.466-1.863 2.329-4.192 4.657-4.192M157.904 16.215l0.932 0.466c4.658 0.932 6.987 7.453 12.11 5.124 0 3.261 0.466 6.521-0.466 8.85-1.397 3.726-5.59 3.726-8.85 3.726-31.208-1.863-49.374 11.179-68.471 22.358-5.124 3.261-10.713 5.59-14.906 9.782-20.029 18.632-41.921 35.866-47.045 70.335l-4.192 38.195c-0.466 4.192-5.124 8.384-4.192 13.508l3.26 22.824c-3.261-3.261-5.124 0.932-4.192 2.795 0.466 1.397 2.329 6.055 5.124 1.863 3.726 6.987 7.453 20.495 12.576 26.55 15.837 18.632 36.332 35.4 53.101 52.169 4.192-0.932 7.453-0.932 8.384-3.727 1.397 2.795-1.397 5.59-3.726 6.056 7.453 4.658 15.837 8.85 27.016 9.781 14.44 0.932 27.948 3.261 40.524 6.522 6.521-1.863 13.042-2.795 20.029-3.261 2.329 0 3.726-3.726 6.521-4.658l0.466-4.658c2.795 4.192 2.329-1.397 0.466-4.192 3.261 2.795 4.192 5.124 5.589 6.987 0-1.397 3.726-6.521 3.727-0.466l0.931-6.055c1.397-0.932 1.863 5.124 3.261 0.931 1.397-4.192 4.192-0.932 6.987-2.329-0.932 1.863-0.466 5.59 2.794 3.261l3.727-3.261c2.329 5.59 6.055 3.261 7.918 2.329 20.495-13.042 40.99-28.413 60.553-43.784l-0.466 6.055 2.329-7.453c2.329 2.329 4.192 0.466 5.124-0.931 2.795-4.658 6.521-9.316 12.577-13.508-7.453 20.029-16.303 35.866-27.482 48.908l-4.658 5.59c0 3.261-0.932 7.453-4.658 7.918-1.863 0.466-5.59-0.932-8.384 1.863-1.397 1.863 3.261 5.59-0.466 2.795-3.261-2.329-6.521 0-10.248 0.932-2.795 0.932 1.863 3.726 2.795 5.589 0.932 1.863 1.863 3.726 1.398 6.056l-5.124-5.59c-6.055 3.261-9.782 9.316-14.906 13.974-2.329 1.863-1.397 5.124-1.397 7.918-3.261 0-6.987-0.932-8.85 0.932-1.397 1.863-0.932 4.658-0.932 7.453-4.658-0.466-5.124-7.453-9.315-6.056-4.192 0.932-8.85 1.397-12.577 3.727 2.795 5.59-4.658 2.329-3.726 3.26-6.987-4.192-13.042-7.453-20.495-4.658-15.837-5.124-35.4-2.795-49.84-0.931 0-2.329 0.466-4.658-0.466-5.124-0.932 2.329-3.726 1.397-3.26 1.397-8.85-6.055-17.7-9.782-27.016-14.905-8.384 0.932-16.303-3.261-18.632-5.59-6.521-6.055-13.974-2.795-20.029-4.192-13.042-3.261-17.7-16.769-19.098-26.084-0.932-4.658-4.658-6.521-6.055-6.056-6.055-19.563-15.371-37.263-22.824-55.429-1.863-4.658-1.397-9.316-1.397-14.44 2.329 0.932 4.658 0.466 4.192-2.794-2.329-15.371-7.918-27.016-13.974-38.195 3.261-15.837 3.726-34.469 11.179-48.443 6.521-12.576 18.632-19.098 27.016-29.811 2.795-3.726 2.795-8.85 5.59-12.11 9.316-9.316 18.632-19.098 28.879-27.482 4.658-3.726 10.247 0 17.234-1.397 2.329-8.384 11.645-15.837 20.495-13.508 3.726 0.932 11.179-8.85 13.508-9.782 3.726-1.397 1.863 3.726 1.863 6.987 8.85-6.987 20.961-10.713 32.14-14.906" fill="#454545" fill-rule="nonzero" stroke="none" stroke-width="1" stroke-linecap="butt" stroke-linejoin="miter" stroke-miterlimit="10" stroke-dasharray="" stroke-dashoffset="0" font-family="none" font-weight="none" font-size="none" text-anchor="none" style="mix-blend-mode: normal" data-fill-palette-color="tertiary"></path></g><g transform="matrix(1,0,0,1,64,117.4979991531089)"><svg viewBox="0 0 192 125.00400169378219" height="125.00400169378219" width="192"><g><svg viewBox="0 0 192 125.00400169378219" height="125.00400169378219" width="192"><g><svg viewBox="0 0 192 125.00400169378219" height="125.00400169378219" width="192"><g transform="matrix(1,0,0,1,0,74.28682054526733)"><svg viewBox="0 0 192 50.717181148514854" height="50.717181148514854" width="192"><g><svg viewBox="0 0 192 50.717181148514854" height="50.717181148514854" width="192"><g><svg viewBox="0 0 192 28.752475247524753" height="28.752475247524753" width="192"><g transform="matrix(1,0,0,1,0,0)"><svg width="192" viewBox="-1.100000023841858 -41.349998474121094 282.7799987792969 42.349998474121094" height="28.752475247524753" data-palette-color="#454545"><path d="M28.85 0L18.45 0 17.3-6.85 10.3-6.85 9.15 0-1.1 0 7.9-34.8 19.9-34.8 28.85 0ZM13.75-27.75L11.45-13.85 16.1-13.85 13.75-27.75ZM46.5 0L40.85-12.45 39.5-12.45 39.5 0 29.4 0 29.4-34.8 41-34.8Q48.2-34.8 51.67-32.05 55.15-29.3 55.15-23.75L55.15-23.75Q55.15-17.35 49.75-14.4L49.75-14.4 57.35 0 46.5 0ZM39.5-27.9L39.5-19.25 41.2-19.25Q43.15-19.25 44.05-20.33 44.95-21.4 44.95-23.75L44.95-23.75Q44.95-25.9 43.92-26.9 42.9-27.9 40.9-27.9L40.9-27.9 39.5-27.9ZM57.9-34.8L68-34.8 68 0 57.9 0 57.9-34.8ZM76.8-34.8L86.8-34.8 78.35-19.3 87.65 0 76.5 0 68.3-18.55 76.8-34.8ZM103.99-12L88.24-12 88.24-19.3 103.99-19.3 103.99-12ZM117.39 0L107.29 0 107.29-34.8 127.74-34.8 126.74-27.8 117.39-27.8 117.39-20 125.64-20 125.64-12.95 117.39-12.95 117.39 0ZM143.44-35.8Q150.69-35.8 154.49-31.13 158.29-26.45 158.29-17.45L158.29-17.45Q158.29-8.6 154.46-3.8 150.64 1 143.44 1L143.44 1Q136.19 1 132.36-3.73 128.54-8.45 128.54-17.45L128.54-17.45Q128.54-26.3 132.36-31.05 136.19-35.8 143.44-35.8L143.44-35.8ZM143.44-28.65Q141.79-28.65 140.84-27.58 139.89-26.5 139.46-24.08 139.04-21.65 139.04-17.45L139.04-17.45Q139.04-13.15 139.46-10.73 139.89-8.3 140.84-7.23 141.79-6.15 143.44-6.15L143.44-6.15Q145.14-6.15 146.09-7.23 147.04-8.3 147.44-10.73 147.84-13.15 147.84-17.45L147.84-17.45Q147.84-21.6 147.41-24.05 146.99-26.5 146.01-27.58 145.04-28.65 143.44-28.65L143.44-28.65ZM175.04-35.8Q182.29-35.8 186.09-31.13 189.89-26.45 189.89-17.45L189.89-17.45Q189.89-8.6 186.06-3.8 182.24 1 175.04 1L175.04 1Q167.79 1 163.96-3.73 160.14-8.45 160.14-17.45L160.14-17.45Q160.14-26.3 163.96-31.05 167.79-35.8 175.04-35.8L175.04-35.8ZM175.04-28.65Q173.39-28.65 172.44-27.58 171.49-26.5 171.06-24.08 170.64-21.65 170.64-17.45L170.64-17.45Q170.64-13.15 171.06-10.73 171.49-8.3 172.44-7.23 173.39-6.15 175.04-6.15L175.04-6.15Q176.74-6.15 177.69-7.23 178.64-8.3 179.04-10.73 179.44-13.15 179.44-17.45L179.44-17.45Q179.44-21.6 179.01-24.05 178.59-26.5 177.61-27.58 176.64-28.65 175.04-28.65L175.04-28.65ZM203.18-34.8Q208.13-34.8 211.78-33.43 215.43-32.05 217.71-28.25 219.98-24.45 219.98-17.55L219.98-17.55Q219.98-7.85 215.61-3.93 211.23 0 203.63 0L203.63 0 192.53 0 192.53-34.8 203.18-34.8ZM204.33-27.7L202.63-27.7 202.63-7.15 204.23-7.15Q206.23-7.15 207.41-8.1 208.58-9.05 209.13-11.3 209.68-13.55 209.68-17.55L209.68-17.55Q209.68-21.5 209.11-23.73 208.53-25.95 207.38-26.83 206.23-27.7 204.33-27.7L204.33-27.7ZM222.58-26.7L232.28-26.7 232.28 0 222.58 0 222.58-26.7ZM227.43-41.35Q229.78-41.35 231.28-39.88 232.78-38.4 232.78-36.15L232.78-36.15Q232.78-33.9 231.28-32.43 229.78-30.95 227.43-30.95L227.43-30.95Q225.08-30.95 223.58-32.43 222.08-33.9 222.08-36.15L222.08-36.15Q222.08-38.4 223.58-39.88 225.08-41.35 227.43-41.35L227.43-41.35ZM259.18-13.7Q259.18-12.4 258.98-10.6L258.98-10.6 244.38-10.6Q244.68-7.8 245.75-6.83 246.83-5.85 248.83-5.85L248.83-5.85Q250.18-5.85 251.48-6.4 252.78-6.95 254.38-8.1L254.38-8.1 258.28-2.9Q256.33-1.15 253.73-0.08 251.13 1 248.03 1L248.03 1Q241.43 1 238.08-2.85 234.73-6.7 234.73-13.25L234.73-13.25Q234.73-17.4 236.1-20.68 237.48-23.95 240.25-25.83 243.03-27.7 247.03-27.7L247.03-27.7Q252.63-27.7 255.9-24.1 259.18-20.5 259.18-13.7L259.18-13.7ZM249.68-16.05L249.68-16.45Q249.68-19.05 249.15-20.33 248.63-21.6 247.18-21.6L247.18-21.6Q245.83-21.6 245.18-20.43 244.53-19.25 244.33-16.05L244.33-16.05 249.68-16.05ZM271.23-27.7Q273.98-27.7 276.5-26.78 279.03-25.85 280.73-24.3L280.73-24.3 277.32-19.1Q274.53-21 271.93-21L271.93-21Q270.93-21 270.45-20.65 269.98-20.3 269.98-19.65L269.98-19.65Q269.98-19.1 270.28-18.73 270.57-18.35 271.57-17.88 272.57-17.4 274.78-16.6L274.78-16.6Q278.32-15.25 280-13.33 281.68-11.4 281.68-8.15L281.68-8.15Q281.68-5.45 280.2-3.38 278.73-1.3 276.07-0.15 273.43 1 269.98 1L269.98 1Q266.82 1 263.98-0.13 261.13-1.25 259.13-3.2L259.13-3.2 263.63-8.2Q266.82-5.65 269.57-5.65L269.57-5.65Q270.68-5.65 271.28-6.08 271.88-6.5 271.88-7.3L271.88-7.3Q271.88-8 271.57-8.45 271.28-8.9 270.32-9.38 269.38-9.85 267.38-10.55L267.38-10.55Q263.78-11.9 262.1-13.9 260.43-15.9 260.43-18.95L260.43-18.95Q260.43-21.45 261.68-23.45 262.93-25.45 265.35-26.58 267.78-27.7 271.23-27.7L271.23-27.7Z" opacity="1" transform="matrix(1,0,0,1,0,0)" fill="#454545" class="undefined-text-0" data-fill-palette-color="primary" id="text-0"></path></svg></g></svg></g><g transform="matrix(1,0,0,1,0,32.94815144554455)"><svg viewBox="0 0 192 17.769029702970297" height="17.769029702970297" width="192"><g transform="matrix(1,0,0,1,0,0)"><svg width="192" viewBox="1.75 -36.70000076293945 517.5700073242188 47.900001525878906" height="17.769029702970297" data-palette-color="#454545"><path d="M6.8-35.5L6.8-35.5 23.5-34.95 28.2-35.05Q28.35-34 28.35-32.85 28.35-31.7 27.95-31.2 27.55-30.7 26.5-30.7L26.5-30.7Q26.4-30.7 19.45-31.35L19.45-31.35Q19.25-29.1 17.95-23.65 16.65-18.2 15.45-12 14.25-5.8 14.2-0.85L14.2-0.85Q12.25 0.15 6.2 0.15L6.2 0.15 5.85 0.15Q5.85-2.45 8.7-15.35 11.55-28.25 11.55-31.05L11.55-31.05Q11.55-31.25 11.45-31.75L11.45-31.75 9.45-31.75Q5.35-31.75 3.15-30.5L3.15-30.5Q2-32 1.75-34.9L1.75-34.9Q3.45-35.5 6.8-35.5ZM44.62-20.7L44.62-20.7Q44.72-20.8 45.17-22L45.17-22Q47.52-22 51.47-20.6L51.47-20.6Q50.22-16.45 49.47-11.93 48.72-7.4 48.72-5.48 48.72-3.55 49.12-3.55L49.12-3.55Q49.42-3.55 51.32-4.5L51.32-4.5 51.92-4.8 52.82-3.05Q52.37-2.65 51.65-2.05 50.92-1.45 48.92-0.43 46.92 0.6 45.32 0.6L45.32 0.6Q42.22 0.6 41.72-2.2L41.72-2.2Q38.52 0.6 35.95 0.6 33.37 0.6 31.6-1.4 29.82-3.4 29.82-7.7L29.82-7.7Q29.82-14.4 32.57-18.28 35.32-22.15 39.22-22.15L39.22-22.15Q42.02-22.15 44.62-20.7ZM38.92-3.65L38.92-3.65Q40.12-3.65 41.62-4.6L41.62-4.6Q41.97-11.65 43.97-18.55L43.97-18.55Q42.47-19.2 41.42-19.2L41.42-19.2Q39.62-19.2 38.35-15.68 37.07-12.15 37.07-7.9 37.07-3.65 38.92-3.65ZM71.85-6.55L71.85-6.55Q71.85-3.4 69.07-1.4 66.3 0.6 62.75 0.6 59.2 0.6 57.12-0.9 55.05-2.4 55.05-3.55L55.05-3.55Q55.05-4.25 56.8-5.83 58.55-7.4 59.75-7.75L59.75-7.75Q62.25-5.9 63.85-1.9L63.85-1.9Q65.7-2.05 65.7-3.65L65.7-3.65Q65.7-5.95 61.65-10.18 57.6-14.4 57.6-16.9 57.6-19.4 59.85-20.78 62.1-22.15 65.27-22.15 68.45-22.15 70.05-21.03 71.65-19.9 71.65-17.98 71.65-16.05 68.6-12.65L68.6-12.65Q68.95-12.3 69.5-11.73 70.05-11.15 70.95-9.55 71.85-7.95 71.85-6.55ZM67.05-14.4Q69.15-16.2 69.15-17.95 69.15-19.7 66.75-19.7L66.75-19.7Q65.6-19.7 64.85-19.23 64.1-18.75 64.1-18.15L64.1-18.15Q64.1-17.05 66.3-15.05L66.3-15.05 67.05-14.4ZM88.22-21.55L93.07-21.55Q92.97-20.3 92.22-18.65L92.22-18.65Q90.32-18.85 88.62-18.85L88.62-18.85 87.72-18.85Q85.42-7.7 85.42-4.95L85.42-4.95Q85.42-3.5 86.04-3.5 86.67-3.5 89.37-4.75L89.37-4.75 90.27-3.1Q85.82 0.6 82.02 0.6L82.02 0.6Q80.27 0.6 79.14-0.5 78.02-1.6 78.02-3.43 78.02-5.25 78.44-7.55 78.87-9.85 79.62-13.18 80.37-16.5 80.72-18.55L80.72-18.55Q78.87-18.4 77.97-18.25L77.97-18.25Q77.87-18.85 77.87-19.88 77.87-20.9 78.02-21.55L78.02-21.55 81.17-21.55Q81.57-24.25 81.57-26.65L81.57-26.65 81.52-28.2 81.52-28.35Q85.42-29.7 88.87-29.7L88.87-29.7Q89.07-28.7 89.07-27.2 89.07-25.7 88.22-21.55L88.22-21.55ZM95.24-8.65L95.24-8.65Q95.24-14.9 99.02-18.53 102.79-22.15 107.59-22.15L107.59-22.15Q110.54-22.15 112.44-20.7 114.34-19.25 114.34-16.82 114.34-14.4 113.12-12.75 111.89-11.1 110.14-10.2L110.14-10.2Q106.59-8.45 103.64-8L103.64-8 102.44-7.85Q102.79-3.15 106.29-3.15L106.29-3.15Q107.49-3.15 108.84-3.75 110.19-4.35 110.94-4.95L110.94-4.95 111.69-5.55 112.89-3.95Q112.49-3.4 111.29-2.5 110.09-1.6 109.04-1L109.04-1Q106.14 0.6 102.69 0.6 99.24 0.6 97.24-1.85 95.24-4.3 95.24-8.65ZM102.39-10.3Q104.94-10.75 106.44-12.45 107.94-14.15 107.94-16.85 107.94-19.55 106.34-19.55L106.34-19.55Q104.44-19.55 103.42-16.32 102.39-13.1 102.39-10.3L102.39-10.3ZM142.74-21.55L147.59-21.55Q147.49-20.3 146.74-18.65L146.74-18.65Q144.84-18.85 143.14-18.85L143.14-18.85 142.24-18.85Q139.94-7.7 139.94-4.95L139.94-4.95Q139.94-3.5 140.56-3.5 141.19-3.5 143.89-4.75L143.89-4.75 144.79-3.1Q140.34 0.6 136.54 0.6L136.54 0.6Q134.79 0.6 133.66-0.5 132.54-1.6 132.54-3.43 132.54-5.25 132.96-7.55 133.39-9.85 134.14-13.18 134.89-16.5 135.24-18.55L135.24-18.55Q133.39-18.4 132.49-18.25L132.49-18.25Q132.39-18.85 132.39-19.88 132.39-20.9 132.54-21.55L132.54-21.55 135.69-21.55Q136.09-24.25 136.09-26.65L136.09-26.65 136.04-28.2 136.04-28.35Q139.94-29.7 143.39-29.7L143.39-29.7Q143.59-28.7 143.59-27.2 143.59-25.7 142.74-21.55L142.74-21.55ZM155.81-33L155.81-33Q155.81-34.65 155.51-35.35L155.51-35.35Q159.41-36.7 162.86-36.7L162.86-36.7Q163.31-36.25 163.31-34.4L163.31-34.4Q163.31-31.1 160.51-19.2L160.51-19.2Q164.56-22.15 167.61-22.15L167.61-22.15Q169.51-22.15 170.48-20.95 171.46-19.75 171.46-17.78 171.46-15.8 170.31-11.33 169.16-6.85 169.16-5.2 169.16-3.55 169.56-3.55 169.96-3.55 171.66-4.45L171.66-4.45 172.26-4.75 173.16-3Q172.71-2.6 171.96-2 171.21-1.4 169.21-0.4 167.21 0.6 165.53 0.6 163.86 0.6 162.86-0.48 161.86-1.55 161.86-3.38 161.86-5.2 162.98-10.03 164.11-14.85 164.11-16.13 164.11-17.4 163.06-17.4L163.06-17.4Q161.76-17.4 159.81-16.3L159.81-16.3Q157.06-4.2 157.06-0.6L157.06-0.6Q154.96 0.2 149.91 0.2L149.91 0.2Q149.86-0.65 149.86-1.3L149.86-1.3Q149.86-3.45 152.83-16 155.81-28.55 155.81-33ZM177.83-8.65L177.83-8.65Q177.83-14.9 181.61-18.53 185.38-22.15 190.18-22.15L190.18-22.15Q193.13-22.15 195.03-20.7 196.93-19.25 196.93-16.82 196.93-14.4 195.71-12.75 194.48-11.1 192.73-10.2L192.73-10.2Q189.18-8.45 186.23-8L186.23-8 185.03-7.85Q185.38-3.15 188.88-3.15L188.88-3.15Q190.08-3.15 191.43-3.75 192.78-4.35 193.53-4.95L193.53-4.95 194.28-5.55 195.48-3.95Q195.08-3.4 193.88-2.5 192.68-1.6 191.63-1L191.63-1Q188.73 0.6 185.28 0.6 181.83 0.6 179.83-1.85 177.83-4.3 177.83-8.65ZM184.98-10.3Q187.53-10.75 189.03-12.45 190.53-14.15 190.53-16.85 190.53-19.55 188.93-19.55L188.93-19.55Q187.03-19.55 186.01-16.32 184.98-13.1 184.98-10.3L184.98-10.3ZM220.85 5.4Q219.18 6.4 219.18 7.35 219.18 8.3 220.25 8.3 221.33 8.3 222.68 7.28 224.03 6.25 224.93 3.95L224.93 3.95Q222.53 4.4 220.85 5.4ZM234.63-21.85L235.68-21.8Q235.88-21.6 235.88-20.93 235.88-20.25 235.78-19.48 235.68-18.7 235.43-16 235.18-13.3 234.93-11.3L234.93-11.3Q232.38 11.2 221.23 11.2L221.23 11.2Q219.43 11.2 217.95 10.25 216.48 9.3 216.48 7.8L216.48 7.8Q216.48 5.8 218.93 4.15 221.38 2.5 225.53 1.6L225.53 1.6Q225.53 1.55 225.83 0.2 226.13-1.15 226.23-2L226.23-2Q223.23 0.2 220.6 0.2 217.98 0.2 216.3-1.85 214.63-3.9 214.63-8.4L214.63-8.4Q214.63-14.3 217.28-18.23 219.93-22.15 224.28-22.15L224.28-22.15Q226.73-22.15 229.13-20.95L229.13-20.95Q231.68-21.85 234.63-21.85L234.63-21.85ZM226.53-19.2L226.53-19.2Q224.38-19.2 223.13-15.73 221.88-12.25 221.88-8.03 221.88-3.8 223.78-3.8L223.78-3.8Q225.03-3.8 226.73-4.75L226.73-4.75Q228.13-13.15 228.73-18.6L228.73-18.6Q227.33-19.2 226.53-19.2ZM244.83 0.6Q243.1 0.6 241.98-0.55 240.85-1.7 240.85-3.78 240.85-5.85 243.33-17.03 245.8-28.2 245.8-33.15L245.8-33.15 245.5-35.35Q249.4-36.7 252.8-36.7L252.8-36.7Q253.3-36 253.3-34.25L253.3-34.25Q253.3-30.25 250.78-18.78 248.25-7.3 248.25-5.43 248.25-3.55 248.7-3.55L248.7-3.55 252.2-4.8 253.1-3.05Q251.4-1.7 248.98-0.55 246.55 0.6 244.83 0.6ZM264.52 0.6L264.52 0.6Q261.07 0.6 259.12-1.83 257.17-4.25 257.17-8.6L257.17-8.6Q257.17-14.15 260.15-18.15 263.12-22.15 268.37-22.15L268.37-22.15 270.17-22.05Q271.02-22.5 272.07-22.5L272.07-22.5Q276.02-22.5 276.02-15.05L276.02-15.05Q278.07-15.15 280.17-15.6L280.17-15.6 280.97-15.8 281.27-13.85Q279.62-13.15 276.82-12.6L276.82-12.6 275.82-12.4Q274.87-7.15 271.97-3.28 269.07 0.6 264.52 0.6ZM267.22-3.7L267.22-3.7Q269.32-3.7 271-6.4 272.67-9.1 273.32-12.1L273.32-12.1Q267.97-12.1 267.97-16.1L267.97-16.1Q267.97-17.7 268.62-19.1L268.62-19.1 268.87-19.6Q268.67-19.7 268.37-19.7 268.07-19.7 267.92-19.6L267.92-19.6Q266.67-18.8 265.57-15.85 264.47-12.9 264.47-9.1L264.47-9.1Q264.47-3.7 267.22-3.7ZM294.2-34.9L294.2-34.9Q294.2-31.1 291.65-20L291.65-20Q294.65-22.15 297.07-22.15 299.5-22.15 301.22-20.13 302.95-18.1 302.95-13.95L302.95-13.95Q302.95-7 300.22-3.2 297.5 0.6 293.6 0.6L293.6 0.6Q292.15 0.6 290.67 0.25 289.2-0.1 288.45-0.5L288.45-0.5 287.7-0.85Q284.5 0.25 281.45 0.25L281.45 0.25Q281.15 0 281.15-2.18 281.15-4.35 283.95-16.57 286.75-28.8 286.75-33.3L286.75-33.3Q286.75-34.1 286.5-35.35L286.5-35.35Q290.4-36.7 293.95-36.7L293.95-36.7Q294.2-36 294.2-34.9ZM293.75-17.9L293.75-17.9Q292.8-17.9 290.9-17L290.9-17Q288.6-7.3 288.4-3.1L288.4-3.1Q289.9-2.45 291.25-2.45L291.25-2.45Q293.15-2.45 294.42-5.95 295.7-9.45 295.7-13.68 295.7-17.9 293.75-17.9ZM323.42-20.7L323.42-20.7Q323.52-20.8 323.97-22L323.97-22Q326.32-22 330.27-20.6L330.27-20.6Q329.02-16.45 328.27-11.93 327.52-7.4 327.52-5.48 327.52-3.55 327.92-3.55L327.92-3.55Q328.22-3.55 330.12-4.5L330.12-4.5 330.72-4.8 331.62-3.05Q331.17-2.65 330.44-2.05 329.72-1.45 327.72-0.43 325.72 0.6 324.12 0.6L324.12 0.6Q321.02 0.6 320.52-2.2L320.52-2.2Q317.32 0.6 314.74 0.6 312.17 0.6 310.39-1.4 308.62-3.4 308.62-7.7L308.62-7.7Q308.62-14.4 311.37-18.28 314.12-22.15 318.02-22.15L318.02-22.15Q320.82-22.15 323.42-20.7ZM317.72-3.65L317.72-3.65Q318.92-3.65 320.42-4.6L320.42-4.6Q320.77-11.65 322.77-18.55L322.77-18.55Q321.27-19.2 320.22-19.2L320.22-19.2Q318.42-19.2 317.14-15.68 315.87-12.15 315.87-7.9 315.87-3.65 317.72-3.65ZM339.67 0.6Q337.94 0.6 336.82-0.55 335.69-1.7 335.69-3.78 335.69-5.85 338.17-17.03 340.64-28.2 340.64-33.15L340.64-33.15 340.34-35.35Q344.24-36.7 347.64-36.7L347.64-36.7Q348.14-36 348.14-34.25L348.14-34.25Q348.14-30.25 345.62-18.78 343.09-7.3 343.09-5.43 343.09-3.55 343.54-3.55L343.54-3.55 347.04-4.8 347.94-3.05Q346.24-1.7 343.82-0.55 341.39 0.6 339.67 0.6ZM377.14-19.65L377.14-19.65Q375.14-19.65 373.94-16.32 372.74-13 372.74-9.2L372.74-9.2Q372.74-3.2 376.44-3.2L376.44-3.2Q377.64-3.2 378.99-3.78 380.34-4.35 381.14-4.9L381.14-4.9 381.89-5.5 383.04-3.95Q382.64-3.4 381.44-2.5 380.24-1.6 379.19-1 378.14-0.4 376.49 0.1 374.84 0.6 373.24 0.6L373.24 0.6Q369.34 0.6 367.39-1.95 365.44-4.5 365.44-8.8L365.44-8.8Q365.44-14.75 368.71-18.45 371.99-22.15 377.14-22.15L377.14-22.15Q380.49-22.15 382.46-20.63 384.44-19.1 384.44-16.88 384.44-14.65 383.04-13.05L383.04-13.05Q381.79-13.05 380.14-13.6 378.49-14.15 377.64-14.95L377.64-14.95 378.39-19.35Q377.94-19.65 377.14-19.65ZM389.16-3.78Q389.16-5.9 390.46-11.08 391.76-16.25 391.76-17.43 391.76-18.6 389.96-20.55L389.96-20.55 390.01-21.2Q393.41-21.9 398.96-21.9L398.96-21.9Q399.21-21.25 399.21-19.55 399.21-17.85 397.81-12.3 396.41-6.75 396.41-5.4 396.41-4.05 397.41-4.05L397.41-4.05Q398.86-4.05 400.76-5.1L400.76-5.1Q400.96-6.3 401.76-9.7L401.76-9.7Q403.56-17.7 403.56-21.15L403.56-21.15Q405.31-21.85 409.86-21.85L409.86-21.85 410.81-21.85Q410.81-19.5 409.41-12.68 408.01-5.85 408.01-4.67 408.01-3.5 408.51-3.5L408.51-3.5Q408.81-3.5 411.36-4.7L411.36-4.7 412.31-3.1Q407.86 0.6 404.51 0.6L404.51 0.6Q402.91 0.6 401.79-0.3 400.66-1.2 400.51-2.65L400.51-2.65Q396.46 0.65 393.16 0.65L393.16 0.65Q391.41 0.65 390.29-0.5 389.16-1.65 389.16-3.78ZM427.33-19.05Q427.33-16.95 425.98-11.83 424.63-6.7 424.63-5.13 424.63-3.55 425.08-3.55L425.08-3.55Q425.38-3.55 427.38-4.5L427.38-4.5 427.98-4.8 428.83-3.05Q428.38-2.65 427.63-2.05 426.88-1.45 424.83-0.43 422.78 0.6 421.03 0.6 419.28 0.6 418.28-0.48 417.28-1.55 417.28-3.38 417.28-5.2 418.53-9.88 419.78-14.55 419.78-15.95L419.78-15.95Q419.78-18.05 418.48-19.9L418.48-19.9 418.03-20.5 418.08-21.15Q420.73-21.9 426.68-21.9L426.68-21.9Q427.33-21.15 427.33-19.05ZM421.63-27.38Q420.63-28.35 420.63-30 420.63-31.65 422.01-32.9 423.38-34.15 425.18-34.15 426.98-34.15 427.98-33.15 428.98-32.15 428.98-30.53 428.98-28.9 427.56-27.65 426.13-26.4 424.38-26.4 422.63-26.4 421.63-27.38ZM449.31-6.55L449.31-6.55Q449.31-3.4 446.53-1.4 443.76 0.6 440.21 0.6 436.66 0.6 434.58-0.9 432.51-2.4 432.51-3.55L432.51-3.55Q432.51-4.25 434.26-5.83 436.01-7.4 437.21-7.75L437.21-7.75Q439.71-5.9 441.31-1.9L441.31-1.9Q443.16-2.05 443.16-3.65L443.16-3.65Q443.16-5.95 439.11-10.18 435.06-14.4 435.06-16.9 435.06-19.4 437.31-20.78 439.56-22.15 442.73-22.15 445.91-22.15 447.51-21.03 449.11-19.9 449.11-17.98 449.11-16.05 446.06-12.65L446.06-12.65Q446.41-12.3 446.96-11.73 447.51-11.15 448.41-9.55 449.31-7.95 449.31-6.55ZM444.51-14.4Q446.61-16.2 446.61-17.95 446.61-19.7 444.21-19.7L444.21-19.7Q443.06-19.7 442.31-19.23 441.56-18.75 441.56-18.15L441.56-18.15Q441.56-17.05 443.76-15.05L443.76-15.05 444.51-14.4ZM465.23-19.05Q465.23-16.95 463.88-11.83 462.53-6.7 462.53-5.13 462.53-3.55 462.98-3.55L462.98-3.55Q463.28-3.55 465.28-4.5L465.28-4.5 465.88-4.8 466.73-3.05Q466.28-2.65 465.53-2.05 464.78-1.45 462.73-0.43 460.68 0.6 458.93 0.6 457.18 0.6 456.18-0.48 455.18-1.55 455.18-3.38 455.18-5.2 456.43-9.88 457.68-14.55 457.68-15.95L457.68-15.95Q457.68-18.05 456.38-19.9L456.38-19.9 455.93-20.5 455.98-21.15Q458.63-21.9 464.58-21.9L464.58-21.9Q465.23-21.15 465.23-19.05ZM459.53-27.38Q458.53-28.35 458.53-30 458.53-31.65 459.9-32.9 461.28-34.15 463.08-34.15 464.88-34.15 465.88-33.15 466.88-32.15 466.88-30.53 466.88-28.9 465.45-27.65 464.03-26.4 462.28-26.4 460.53-26.4 459.53-27.38ZM473.1 0.15L473.1 0.15 472.15 0.15Q472.15-2.2 473.58-8.85 475-15.5 475-16.4L475-16.4Q475-18.05 473.6-19.9L473.6-19.9 473.15-20.5 473.2-21.15Q475.9-21.9 481.85-21.9L481.85-21.9Q482.5-21.05 482.55-18.8L482.55-18.8Q486.9-22.15 489.9-22.15L489.9-22.15Q491.7-22.15 492.78-20.9 493.85-19.65 493.85-17.78 493.85-15.9 492.7-11.3 491.55-6.7 491.55-5.13 491.55-3.55 491.95-3.55L491.95-3.55Q492.25-3.55 494.05-4.5L494.05-4.5 494.65-4.8 495.55-3.05Q495.1-2.65 494.35-2.05 493.6-1.45 491.58-0.43 489.55 0.6 487.95 0.6L487.95 0.6Q484.3 0.6 484.3-3.55L484.3-3.55Q484.3-5.3 485.43-10 486.55-14.7 486.55-16.05 486.55-17.4 485.7-17.4L485.7-17.4Q484.25-17.4 482.15-16.15L482.15-16.15Q482-15.3 481.15-11.65L481.15-11.65Q479.4-3.8 479.4-0.55L479.4-0.55Q477.65 0.15 473.1 0.15ZM500.22-8.65L500.22-8.65Q500.22-14.9 504-18.53 507.77-22.15 512.57-22.15L512.57-22.15Q515.52-22.15 517.42-20.7 519.32-19.25 519.32-16.82 519.32-14.4 518.1-12.75 516.87-11.1 515.12-10.2L515.12-10.2Q511.57-8.45 508.62-8L508.62-8 507.42-7.85Q507.77-3.15 511.27-3.15L511.27-3.15Q512.47-3.15 513.82-3.75 515.17-4.35 515.92-4.95L515.92-4.95 516.67-5.55 517.87-3.95Q517.47-3.4 516.27-2.5 515.07-1.6 514.02-1L514.02-1Q511.12 0.6 507.67 0.6 504.22 0.6 502.22-1.85 500.22-4.3 500.22-8.65ZM507.37-10.3Q509.92-10.75 511.42-12.45 512.92-14.15 512.92-16.85 512.92-19.55 511.32-19.55L511.32-19.55Q509.42-19.55 508.4-16.32 507.37-13.1 507.37-10.3L507.37-10.3Z" opacity="1" transform="matrix(1,0,0,1,0,0)" fill="#454545" class="undefined-text-1" data-fill-palette-color="secondary" id="text-1"></path></svg></g></svg></g></svg></g></svg></g><g transform="matrix(1,0,0,1,71.0238981359613,0)"><svg viewBox="0 0 49.952203728077386 70.09114434724754" height="70.09114434724754" width="49.952203728077386"><g><svg xmlns="http://www.w3.org/2000/svg" xmlns:xlink="http://www.w3.org/1999/xlink" version="1.1" x="0" y="0" viewBox="15.709000587463379 3.7709999084472656 68.58000183105469 96.22900390625" enable-background="new 0 0 100 100" xml:space="preserve" width="49.952203728077386" height="70.09114434724754" class="icon-icon-0" data-fill-palette-color="accent" id="icon-0"><circle cx="49.999" cy="53.877" r="17" fill="#454545" data-fill-palette-color="accent"></circle><path d="M69.771 14.689c0 3.879-3.144 7.024-7.022 7.024V37.47c0 0-4.792-3.972-12.749-3.972-7.956 0-12.749 3.972-12.749 3.972V22.893c-3.879 0-7.022-3.145-7.022-7.024 0-3.685 2.836-6.707 6.446-6.999 1.145-2.322 3.536-3.919 6.301-3.919 0.884 0 1.729 0.164 2.509 0.461C46.706 4.388 48.281 3.771 50 3.771c1.719 0 3.293 0.618 4.514 1.641 0.779-0.297 1.625-0.461 2.51-0.461 2.256 0 4.264 1.064 5.549 2.717 0.059-0.002 0.118-0.002 0.176-0.002C66.627 7.666 69.771 10.81 69.771 14.689z" fill="#454545" data-fill-palette-color="accent"></path><path d="M49.5 77.484l-12.648-6.147-1.841 3.403h-7.498c-6.519 0-11.804 5.285-11.804 11.804V100h21.415V83.563L49.5 77.484z" fill="#454545" data-fill-palette-color="accent"></path><path d="M72.485 74.74h-7.498l-1.62-2.955L38.125 84.187V100h46.164V86.544C84.289 80.025 79.005 74.74 72.485 74.74zM40.508 99.446c-0.854 0-1.545-0.691-1.545-1.544s0.691-1.544 1.545-1.544c0.853 0 1.544 0.691 1.544 1.544S41.36 99.446 40.508 99.446zM40.508 87.633c-0.854 0-1.545-0.691-1.545-1.544s0.691-1.544 1.545-1.544c0.853 0 1.544 0.691 1.544 1.544S41.36 87.633 40.508 87.633zM60.67 99.446c-0.854 0-1.545-0.691-1.545-1.544s0.691-1.544 1.545-1.544c0.853 0 1.544 0.691 1.544 1.544S61.522 99.446 60.67 99.446zM60.67 87.633c-0.854 0-1.545-0.691-1.545-1.544s0.691-1.544 1.545-1.544c0.853 0 1.544 0.691 1.544 1.544S61.522 87.633 60.67 87.633z" fill="#454545" data-fill-palette-color="accent"></path></svg></g></svg></g><g></g></svg></g></svg></g></svg></g></svg></g><defs></defs></svg><rect width="320" height="360" fill="none" stroke="none" visibility="hidden"></rect></g></svg></g></svg>